<?xml version="1.0" encoding="UTF-8"?> <svg xmlns="http://www.w3.org/2000/svg" id="Layer_1" data-name="Layer 1" width="180.94" height="40.71" viewBox="0 0 180.94 40.71"><defs><style>.cls-1{fill:#73ba00;}.cls-2{fill:#fff;}</style></defs><title>LogoParquesWhite</title><path class="cls-1" d="M19.23,8.72h-9c0-.1.23-1.74.42-3.11H21.39S22.1.43,22.1.43A.37.37,0,0,0,21.73,0H8.27A1.63,1.63,0,0,0,7.15.48L4.42,2.79a1.87,1.87,0,0,0-.53,1s0,.07,0,.12,0,.07,0,.12L1.78,19.51a1.34,1.34,0,0,0,.25,1l2,2.69a1.31,1.31,0,0,0,1.06.51H18.57a.37.37,0,0,0,.37-.32l.58-4.15a1.32,1.32,0,0,0-.3-1.07,1.3,1.3,0,0,0-1-.44H9l.42-3h9.11a1.61,1.61,0,0,0,1.06-.41,1.63,1.63,0,0,0,.55-1l.43-3.07a1.32,1.32,0,0,0-.3-1.07A1.3,1.3,0,0,0,19.23,8.72Z"></path><path class="cls-1" d="M44.86.07A1.1,1.1,0,0,0,44.5,0h-.15a2.42,2.42,0,0,0-.43,0H24.62a.81.81,0,0,0-.81.71L23.57,2.6h0L20.73,23.28a.37.37,0,0,0,.37.42h5.09a1.61,1.61,0,0,0,1.06-.41,1.63,1.63,0,0,0,.55-1L30.11,5.61h1.78c-.78,5.65-2.29,16.58-2.29,16.58a1.32,1.32,0,0,0,.3,1.07,1.3,1.3,0,0,0,1,.44h4A1.61,1.61,0,0,0,36,23.3a1.63,1.63,0,0,0,.55-1S38.06,11,38.81,5.61h1.8L38.3,22.2a1.32,1.32,0,0,0,.3,1.07,1.3,1.3,0,0,0,1,.44H44.7a.37.37,0,0,0,.37-.32l0-.19S47.09,9,47.56,5.41C48.09,1.35,46.11.32,44.86.07Z"></path><path class="cls-1" d="M78.83,8.29v0C78.88,7.91,78.89,7.88,78.83,8.29Z"></path><path class="cls-1" d="M86.13,5.61s0,0,0-.13l.09-.67a1.84,1.84,0,0,0,0-.33l.07-.5,0-.16a1.34,1.34,0,0,0-.25-1L84,.52A1.31,1.31,0,0,0,82.95,0h-9.4a1.63,1.63,0,0,0-1.12.47L69.69,2.79a1.64,1.64,0,0,0-.49.94l0,.15a2.83,2.83,0,0,0,0,.44h0c-.31,2.19-1.71,12.38-2,14.4l-.11.76a1.34,1.34,0,0,0,.25,1l2,2.69a1.3,1.3,0,0,0,1.06.51h9.4a1.63,1.63,0,0,0,1.12-.47l2.78-2.69a1.64,1.64,0,0,0,.49-.94s1.42-10.27,1.94-14Zm-8.6,12a.12.12,0,0,1-.1.09H74.23S75.41,9.2,75.91,5.61h3.35c-.18,1.08-.36,2.19-.42,2.64C78.67,9.4,78,14.19,77.52,17.63Z"></path><path class="cls-1" d="M103.76,12.06l-2-2.69a1.31,1.31,0,0,0-1.06-.51H94.39l.44-3.26H105s0-.37.21-1.62h0l0-.16a1.34,1.34,0,0,0-.25-1L102.92.52A1.31,1.31,0,0,0,101.86,0h-9.4a1.63,1.63,0,0,0-1.12.47L88.61,2.79a1.63,1.63,0,0,0-.49.94l0,.12c0,.06,0,.12,0,.2l-.86,6.61a1.34,1.34,0,0,0,.25,1l2,2.69a1.31,1.31,0,0,0,1.06.51h6.29l-.39,2.79a.11.11,0,0,1,0,.06l-.06,0H93.15l0-.11a1.32,1.32,0,0,0-.3-1.07,1.3,1.3,0,0,0-1-.44H86.77a.37.37,0,0,0-.37.32L86,19.51a1.33,1.33,0,0,0,.25,1l2,2.69a1.31,1.31,0,0,0,1.06.51h9.4a1.63,1.63,0,0,0,1.12-.47l2.78-2.69a1.63,1.63,0,0,0,.49-.94l.92-6.55a1.34,1.34,0,0,0-.25-1Z"></path><path class="cls-1" d="M124.15,3.33V3.28l0-.07a1.28,1.28,0,0,0-.19-.38l0,0h0l-2-2.28A1.31,1.31,0,0,0,120.78,0h-9.4a1.63,1.63,0,0,0-1.12.47l-2.73,2.32a1.38,1.38,0,0,0-.49.94l0,.16h0S107,4,107,4c-.38,2.71-2.1,15.48-2.1,15.48a1.34,1.34,0,0,0,.25,1l2,2.69a1.31,1.31,0,0,0,1.06.51h9.4a1.63,1.63,0,0,0,1.12-.47l2.78-2.69a1.64,1.64,0,0,0,.49-.94l.76-5.45a.37.37,0,0,0-.37-.42h-5.09a1.61,1.61,0,0,0-1.06.41,1.63,1.63,0,0,0-.55,1l-.35,2.49a.11.11,0,0,1,0,.06l-.06,0h-3.19s1.15-8.58,1.63-12.12h3.39l-.63,4.07c-.1.7.33,1.19.72,1.19h5.71a.37.37,0,0,0,.37-.32l.9-6.05A2.84,2.84,0,0,0,124.15,3.33Z"></path><path class="cls-1" d="M143,4.38l.05-.38,0-.16c0-.24.3-1.8.48-2.86a.83.83,0,0,0-.82-1H130.3a1.63,1.63,0,0,0-1.12.47l-2.4,2a3.42,3.42,0,0,0-.6.76l0,0a2.11,2.11,0,0,0-.11.24l0,.13a1.71,1.71,0,0,0-.07.22s0,.08,0,.13V4c-.51,3.61-2.62,19.07-2.62,19.07l0,.19a.37.37,0,0,0,.37.42h5.09a1.61,1.61,0,0,0,1.06-.41,1.63,1.63,0,0,0,.55-1l.82-5.83h3.28l-.8,5.72a1.32,1.32,0,0,0,.3,1.07,1.3,1.3,0,0,0,1,.44H140a.37.37,0,0,0,.37-.32l0-.19S142.49,8.11,143,4.5C143,4.46,143,4.42,143,4.38Zm-11,6.11.65-4.87h3.28l-.65,4.87Z"></path><path class="cls-1" d="M161.92,5.07c0-.17.06-.35.08-.54l0-.15A1.76,1.76,0,0,0,162,4a.78.78,0,0,0,0-.1,2,2,0,0,0-.1-.44,3.75,3.75,0,0,0-.49-1L159.68.52A1.31,1.31,0,0,0,158.62,0h-12.9a.37.37,0,0,0-.37.32l0,.19L145,2.65l-.07.53-.1.71h0c-.72,5.22-2.63,19.2-2.63,19.2l0,.19a.37.37,0,0,0,.37.42h12.9a1.63,1.63,0,0,0,1.12-.47l2.78-2.69a1.64,1.64,0,0,0,.49-.94h0c0-.1,0-.29.1-.71C160.19,17.14,161.48,8.2,161.92,5.07Zm-8.83,12.66H149.9c.18-1.3,1.17-8.17,1.73-12.11h3.28l-1.72,12A.12.12,0,0,1,153.09,17.72Z"></path><path class="cls-1" d="M180.67,2.83,178.59.52A1.31,1.31,0,0,0,177.54,0h-9.4A1.63,1.63,0,0,0,167,.48l-2.73,2.32a1.64,1.64,0,0,0-.49.94l0,.16h0s0,.08,0,.13c-.51,3.61-2.6,19.07-2.6,19.07l0,.19a.37.37,0,0,0,.37.42h5.09a1.66,1.66,0,0,0,1.61-1.41l.82-5.83h3.28l-.8,5.72a1.32,1.32,0,0,0,.3,1.07,1.3,1.3,0,0,0,1,.44h5.09a.37.37,0,0,0,.37-.32l0-.19s1.75-12.91,2.4-17.59c0,0,.08-.54.26-1.77V3.78a.4.4,0,0,0,0-.06A1.33,1.33,0,0,0,180.67,2.83Zm-10.84,7.65.63-4.87h3.28l-.63,4.87Z"></path><path class="cls-1" d="M67.18,5.61h0L67.39,4h0l0-.15h0a1.34,1.34,0,0,0-.25-1L65.08.52A1.31,1.31,0,0,0,64,0H50.39A.37.37,0,0,0,50,.33l-.5,3.56C49,7.5,46.88,23.1,46.88,23.1l0,.19a.37.37,0,0,0,.37.42H60.87A1.63,1.63,0,0,0,62,23.24l2.78-2.69a1.64,1.64,0,0,0,.49-.94l.92-6.55a1.33,1.33,0,0,0-.25-1l-.74-1,1-1a1.64,1.64,0,0,0,.49-.94l.46-3.52Zm-8.58,12a.12.12,0,0,1-.1.09H54.57l.4-2.87h4Zm1.14-8.76H55.81l.42-3.25h4l-.41,3.16A.12.12,0,0,1,59.74,8.86Z"></path><path class="cls-2" d="M5.68,31.42a1.69,1.69,0,0,1,.94.26,1.61,1.61,0,0,1,.6.7,1.72,1.72,0,0,1,.15.68,2.15,2.15,0,0,1,0,.31l-.27,1.87a2.3,2.3,0,0,1-.78,1.39,2.14,2.14,0,0,1-1.45.56H2.34l-.19,1.36a1.18,1.18,0,0,1-.4.71,1.1,1.1,0,0,1-.74.29H0l1-7.13a1.18,1.18,0,0,1,.4-.71,1.1,1.1,0,0,1,.74-.29Zm-2.79,2-.25,1.76h2A.53.53,0,0,0,5,35a.58.58,0,0,0,.2-.35l.11-.78a.53.53,0,0,0,0-.08.41.41,0,0,0-.1-.27.4.4,0,0,0-.32-.15Z"></path><path class="cls-2" d="M11.88,39.55l.83-5.82a2.72,2.72,0,0,1,.92-1.64,2.85,2.85,0,0,1,.81-.5,2.44,2.44,0,0,1,.93-.18H18a2.07,2.07,0,0,1,.88.18A1.92,1.92,0,0,1,20,33.36a2.66,2.66,0,0,1,0,.37l-.69,4.81a1.18,1.18,0,0,1-.4.71,1.1,1.1,0,0,1-.74.29h-1l.39-2.76H14.28L14,38.55a1.18,1.18,0,0,1-.4.71,1.1,1.1,0,0,1-.74.29Zm5.91-4.76.15-1.05a.24.24,0,0,0,0-.05.26.26,0,0,0-.06-.17.26.26,0,0,0-.21-.1H15.08a.34.34,0,0,0-.23.1.35.35,0,0,0-.12.22l-.15,1.05Z"></path><path class="cls-2" d="M30.56,31.42a1.69,1.69,0,0,1,.94.26,1.61,1.61,0,0,1,.6.7,1.65,1.65,0,0,1,.15.66,2,2,0,0,1,0,.32L32,35.23a2.27,2.27,0,0,1-.55,1.15,2.35,2.35,0,0,1-1.08.7l.16.37.86,2.09H30.21a1.76,1.76,0,0,1-1.07-.23,2.54,2.54,0,0,1-.56-.95l-.49-1.19h-.86L27,38.55a1.18,1.18,0,0,1-.4.71,1.1,1.1,0,0,1-.74.29h-1l1-7.13a1.18,1.18,0,0,1,.4-.71,1.1,1.1,0,0,1,.74-.29ZM30,34.69l.11-.78a.49.49,0,0,0,0-.07.4.4,0,0,0-.11-.27.4.4,0,0,0-.32-.15h-2l-.25,1.76h2a.53.53,0,0,0,.36-.14A.58.58,0,0,0,30,34.69Z"></path><path class="cls-2" d="M44.76,33.74l-.5,3.5a2.49,2.49,0,0,1-.34,1l.31.54a.9.9,0,0,1,.12.42,1,1,0,0,1-.05.32,1.19,1.19,0,0,1-.49.65l-.9.59-.72-1.23a2.39,2.39,0,0,1-.59.07H39a2.06,2.06,0,0,1-.87-.18A1.93,1.93,0,0,1,37,37.6a3.05,3.05,0,0,1,0-.36l.5-3.5a2.74,2.74,0,0,1,.92-1.64,2.91,2.91,0,0,1,.81-.49,2.44,2.44,0,0,1,.93-.18h2.59a2.07,2.07,0,0,1,.88.18,1.9,1.9,0,0,1,1.13,1.76A2.56,2.56,0,0,1,44.76,33.74Zm-3.68,3.81-.64-1.1a.94.94,0,0,1-.11-.43,1.07,1.07,0,0,1,0-.32,1.22,1.22,0,0,1,.49-.65l.9-.59.72,1.23h0l.28-2a.19.19,0,0,0,0,0,.27.27,0,0,0-.06-.18.28.28,0,0,0-.21-.1H39.9a.34.34,0,0,0-.23.1.38.38,0,0,0-.13.22l-.5,3.5v.06a.26.26,0,0,0,.06.17.27.27,0,0,0,.21.09Z"></path><path class="cls-2" d="M58,31.42l-.84,5.82a2.62,2.62,0,0,1-.49,1.17,2.92,2.92,0,0,1-1,.84,2.47,2.47,0,0,1-1.21.31H51.93a2,2,0,0,1-1.12-.31,1.94,1.94,0,0,1-.72-.83,2,2,0,0,1-.17-.79,2.56,2.56,0,0,1,0-.37l.69-4.82a1.18,1.18,0,0,1,.4-.71,1.1,1.1,0,0,1,.74-.29h1l-.84,5.82a.18.18,0,0,0,0,0,.27.27,0,0,0,.07.18.27.27,0,0,0,.21.09H54.8a.34.34,0,0,0,.23-.09.39.39,0,0,0,.13-.22l.69-4.82a1.18,1.18,0,0,1,.4-.71,1.1,1.1,0,0,1,.74-.29Z"></path><path class="cls-2" d="M67.9,39.55H65a2.21,2.21,0,0,1-1.23-.34,2.09,2.09,0,0,1-.79-.92,2.19,2.19,0,0,1-.19-.87,2.77,2.77,0,0,1,0-.42l.43-3a2.87,2.87,0,0,1,.53-1.28,3.23,3.23,0,0,1,1.05-.92,2.72,2.72,0,0,1,1.33-.35h3.9l-.14,1a1.21,1.21,0,0,1-.41.71,1.09,1.09,0,0,1-.74.29h-2.9a.61.61,0,0,0-.41.16.62.62,0,0,0-.22.39l-.07.52h3.13l-.14,1a1.19,1.19,0,0,1-.4.72,1.1,1.1,0,0,1-.74.29H64.89l-.07.51a.68.68,0,0,0,0,.08.47.47,0,0,0,.11.31.46.46,0,0,0,.36.16h3.9l-.14,1a1.18,1.18,0,0,1-.4.71A1.1,1.1,0,0,1,67.9,39.55Z"></path><path class="cls-2" d="M83.32,39.55l.83-5.82a2.72,2.72,0,0,1,.92-1.64,2.84,2.84,0,0,1,.81-.5,2.44,2.44,0,0,1,.93-.18h2.59a2.07,2.07,0,0,1,.88.18,1.92,1.92,0,0,1,1.13,1.76,2.66,2.66,0,0,1,0,.37l-.69,4.81a1.18,1.18,0,0,1-.4.71,1.1,1.1,0,0,1-.74.29h-1l.39-2.76H85.72l-.25,1.76a1.18,1.18,0,0,1-.4.71,1.1,1.1,0,0,1-.74.29Zm5.91-4.76.15-1.05a.24.24,0,0,0,0-.05.26.26,0,0,0-.06-.17.26.26,0,0,0-.21-.1H86.52a.34.34,0,0,0-.23.1.35.35,0,0,0-.12.22L86,34.79Z"></path><path class="cls-2" d="M98.15,31.42l1.71,5.35L102,33.23l1.1-1.82.85.42a.88.88,0,0,1,.47.75,1.1,1.1,0,0,1-.16.58l-1.18,1.93L100.67,39a1.85,1.85,0,0,1-.27.37.54.54,0,0,1-.31.15l-.44,0h-.42a1.83,1.83,0,0,1-.52-.05.47.47,0,0,1-.26-.33l-.35-1L98,37.82,96.5,33.17a1,1,0,0,1,0-.27,1,1,0,0,1,.13-.5,1.22,1.22,0,0,1,.6-.56Z"></path><path class="cls-2" d="M113.81,39.55h-2.9a2.21,2.21,0,0,1-1.23-.34,2.09,2.09,0,0,1-.79-.92,2.19,2.19,0,0,1-.19-.87,2.8,2.8,0,0,1,0-.42l.43-3a2.87,2.87,0,0,1,.53-1.28,3.23,3.23,0,0,1,1.05-.92,2.72,2.72,0,0,1,1.33-.35H116l-.14,1a1.21,1.21,0,0,1-.41.71,1.09,1.09,0,0,1-.74.29h-2.9a.61.61,0,0,0-.41.16.62.62,0,0,0-.22.39l-.07.52h3.13l-.14,1a1.19,1.19,0,0,1-.4.72,1.1,1.1,0,0,1-.74.29h-2.13l-.07.51a.68.68,0,0,0,0,.08.47.47,0,0,0,.11.31.46.46,0,0,0,.36.16h3.9l-.14,1a1.18,1.18,0,0,1-.4.71A1.1,1.1,0,0,1,113.81,39.55Z"></path><path class="cls-2" d="M123.51,31.42,126.06,36l.66-4.62h1a.82.82,0,0,1,.66.29.84.84,0,0,1,.21.55,1.13,1.13,0,0,1,0,.16l-.87,6.13a1.18,1.18,0,0,1-.4.71,1.1,1.1,0,0,1-.74.29h-1L123,34.92l-.52,3.63a1.21,1.21,0,0,1-.4.71,1.09,1.09,0,0,1-.74.29h-1l1-7.13a1.18,1.18,0,0,1,.4-.71,1.1,1.1,0,0,1,.74-.29Z"></path><path class="cls-2" d="M134.81,39.55l.87-6.13h-1.22a.83.83,0,0,1-.66-.29.85.85,0,0,1-.21-.55,1.25,1.25,0,0,1,0-.16l.14-1h5.45a.82.82,0,0,1,.66.29.83.83,0,0,1,.21.55,1.25,1.25,0,0,1,0,.16l-.14,1h-2.22L137,38.55a1.18,1.18,0,0,1-.4.71,1.1,1.1,0,0,1-.74.29Z"></path><path class="cls-2" d="M152.57,31.42l-.84,5.82a2.62,2.62,0,0,1-.49,1.17,2.91,2.91,0,0,1-1,.84,2.47,2.47,0,0,1-1.21.31h-2.59a2,2,0,0,1-1.12-.31,1.94,1.94,0,0,1-.72-.83,2,2,0,0,1-.17-.79,2.56,2.56,0,0,1,0-.37l.69-4.82a1.18,1.18,0,0,1,.4-.71,1.1,1.1,0,0,1,.74-.29h1l-.84,5.82a.19.19,0,0,0,0,0,.27.27,0,0,0,.07.18.27.27,0,0,0,.21.09h2.59a.34.34,0,0,0,.23-.09.39.39,0,0,0,.13-.22l.69-4.82a1.18,1.18,0,0,1,.4-.71,1.1,1.1,0,0,1,.74-.29Z"></path><path class="cls-2" d="M162.84,31.42a1.69,1.69,0,0,1,.94.26,1.61,1.61,0,0,1,.6.7,1.64,1.64,0,0,1,.15.66,2,2,0,0,1,0,.32l-.26,1.87a2.27,2.27,0,0,1-.55,1.15,2.35,2.35,0,0,1-1.08.7l.16.37.86,2.09h-1.15a1.76,1.76,0,0,1-1.07-.23,2.54,2.54,0,0,1-.56-.95l-.49-1.19h-.86l-.19,1.36a1.18,1.18,0,0,1-.4.71,1.1,1.1,0,0,1-.74.29h-1l1-7.13a1.18,1.18,0,0,1,.4-.71,1.1,1.1,0,0,1,.74-.29Zm-.52,3.28.11-.78a.52.52,0,0,0,0-.07.4.4,0,0,0-.11-.27.4.4,0,0,0-.32-.15h-2l-.25,1.76h2a.53.53,0,0,0,.36-.14A.58.58,0,0,0,162.32,34.69Z"></path><path class="cls-2" d="M169.1,39.55l.83-5.82a2.72,2.72,0,0,1,.92-1.64,2.84,2.84,0,0,1,.81-.5,2.44,2.44,0,0,1,.93-.18h2.59a2.07,2.07,0,0,1,.88.18,1.92,1.92,0,0,1,1.13,1.76,2.62,2.62,0,0,1,0,.37l-.69,4.81a1.18,1.18,0,0,1-.4.71,1.1,1.1,0,0,1-.74.29h-1l.39-2.76H171.5l-.25,1.76a1.18,1.18,0,0,1-.4.71,1.1,1.1,0,0,1-.74.29ZM175,34.79l.15-1.05a.26.26,0,0,0,0-.05.26.26,0,0,0-.06-.17.26.26,0,0,0-.21-.1h-2.59a.34.34,0,0,0-.23.1.35.35,0,0,0-.12.22l-.15,1.05Z"></path></svg> 